<?xml version="1.0" encoding="UTF-8"?>
<!DOCTYPE svg PUBLIC "-//W3C//DTD SVG 1.1//EN" "http://www.w3.org/Graphics/SVG/1.1/DTD/svg11.dtd">
<!-- Creator: CorelDRAW -->
<svg xmlns="http://www.w3.org/2000/svg" xml:space="preserve" width="215.9mm" height="279.4mm" version="1.1" style="shape-rendering:geometricPrecision; text-rendering:geometricPrecision; image-rendering:optimizeQuality; fill-rule:evenodd; clip-rule:evenodd"
viewBox="0 0 21590 27940"
 xmlns:xlink="http://www.w3.org/1999/xlink"
 xmlns:xodm="http://www.corel.com/coreldraw/odm/2003">
 <defs>
  <style type="text/css">
   <![CDATA[
    .str0 {stroke:#373435;stroke-width:20;stroke-miterlimit:22.9256}
    .str1 {stroke:#F4F5F6;stroke-width:20;stroke-miterlimit:22.9256}
    .fil4 {fill:none}
    .fil3 {fill:#FEFEFE}
    .fil2 {fill:#373435}
    .fil6 {fill:#4C335B}
    .fil7 {fill:#4C335B}
    .fil1 {fill:#684E6E}
    .fil0 {fill:#EBE6E6}
    .fil5 {fill:#0A0909;fill-rule:nonzero}
   ]]>
  </style>
 </defs>
 <g id="Capa_x0020_1">
  <metadata id="CorelCorpID_0Corel-Layer"/>
  <circle class="fil0 str0" cx="10924.3" cy="13752.64" r="5175.99"/>
  <g id="_2446138877312">
   <path class="fil1 str0" d="M10932.57 10453.52c1767.17,0 3199.75,1432.58 3199.75,3199.75 0,1767.18 -1432.58,3199.76 -3199.75,3199.76 -1767.18,0 -3199.76,-1432.58 -3199.76,-3199.76 0,-1767.17 1432.58,-3199.75 3199.76,-3199.75z"/>
   <g>
    <path class="fil2 str0" d="M12519.89 15225.4l0 349.56c-41.09,328.57 -531.94,304.22 -574.63,14.36l-14.36 -354.35 -2015.96 -4.78 0 363.92c-3.04,291.61 -552.95,280.92 -550.68,14.37 -4.8,-129.29 -9.58,-258.58 -14.37,-387.87 -151.58,21.1 -280.22,-102.71 -282.52,-215.49l1.75 -2871.04c45.35,-431.51 441.36,-616.17 678.79,-637.44l2431.72 -4.17c175.04,2.72 605.6,123.36 616.26,624.59l1.73 2840.18c4.42,215.47 -109.51,277.11 -277.73,268.16z"/>
    <g>
     <path class="fil3" d="M12293.79 13752.64c129.85,-21.67 211.27,-120.63 207.91,-236.98l-5.44 -966.6c-5.58,-125.29 -74.69,-193.8 -185.6,-224.97l-2789.59 5.63c-109.31,22.74 -161.23,86.12 -171.37,179.09l1.39 1013.53c22.16,141.27 93.34,225.21 203.72,230.3l2738.98 0zm-2338.86 -1858.61l1937.39 -1.55 -1937.39 1.55zm1.76 133.45l1941.82 -6.18 -1941.82 6.18zm1933.51 -135c51.11,0.38 64.06,112.76 7.14,128.82l-7.14 -128.82zm-1932.18 1.54c-80.91,8.73 -73.66,129.92 2.24,133.44l-2.24 -133.44zm-325.88 2444.1c159.02,0 287.92,128.91 287.92,287.92 0,159.02 -128.9,287.93 -287.92,287.93 -159.02,0 -287.93,-128.91 -287.93,-287.93 0,-159.01 128.91,-287.92 287.93,-287.92zm2582.01 5.41c159.02,0 287.93,128.91 287.93,287.92 0,159.02 -128.91,287.93 -287.93,287.93 -159.01,0 -287.92,-128.91 -287.92,-287.93 0,-159.01 128.91,-287.92 287.92,-287.92z"/>
     <path id="_1" class="fil4 str1" d="M12293.79 13752.64c129.85,-21.67 211.27,-120.63 207.91,-236.98l-5.44 -966.6c-5.58,-125.29 -74.69,-193.8 -185.6,-224.97l-2789.59 5.63c-109.31,22.74 -161.23,86.12 -171.37,179.09l1.39 1013.53c22.16,141.27 93.34,225.21 203.72,230.3l2738.98 0zm-2338.86 -1858.61l1937.39 -1.55m-1935.63 135l1941.82 -6.18m-8.31 -128.82c51.11,0.38 64.06,112.76 7.14,128.82m-1939.32 -127.28c-80.91,8.73 -73.66,129.92 2.24,133.44m-328.12 2310.66c159.02,0 287.92,128.91 287.92,287.92 0,159.02 -128.9,287.93 -287.92,287.93 -159.02,0 -287.93,-128.91 -287.93,-287.93 0,-159.01 128.91,-287.92 287.93,-287.92zm2582.01 5.41c159.02,0 287.93,128.91 287.93,287.92 0,159.02 -128.91,287.93 -287.93,287.93 -159.01,0 -287.92,-128.91 -287.92,-287.93 0,-159.01 128.91,-287.92 287.92,-287.92z"/>
    </g>
   </g>
  </g>
  <path class="fil5" d="M7092.38 13043.11l-678.61 -200.31 89.02 -301.6c17.91,-60.67 37.68,-104.96 59.15,-132.88 21.47,-27.94 50.39,-46.79 86.76,-56.54 36.36,-9.76 73.24,-9.03 110.51,1.97 48.18,14.22 84.16,41.88 107.96,82.84 23.8,40.94 30.44,95.26 20.17,163.17 18.44,-20.55 35.14,-35.25 49.84,-44.35 31.78,-19.2 69.29,-35.17 112.34,-47.77l219.56 -63.15 -33.2 112.48 -167.78 48.28c-48.63,14.06 -86.15,26.57 -112.79,37.14 -26.7,10.72 -46.19,21.49 -58.85,32.4 -12.46,10.78 -22.53,22.79 -30.12,35.71 -5.04,9.52 -11.06,25.84 -17.93,49.13l-30.77 104.23 301.39 88.96 -26.65 90.29zm-352.46 -202.19l57.04 -193.26c12.16,-41.19 17.34,-74.44 15.64,-100.1 -1.55,-25.58 -9.94,-47.19 -25.23,-64.61 -15.09,-17.55 -33.53,-29.53 -55.48,-36.01 -32.07,-9.46 -62.03,-5.74 -89.6,11.44 -27.55,17.18 -48.68,50.89 -63.51,101.11l-63.49 215.12 224.63 66.31zm825.74 -1019.23l-67.34 -35.78c32.58,62.57 32.77,124.02 0.61,184.55 -14.19,26.69 -32.53,48.93 -55.02,66.7 -22.66,17.71 -44.61,28.12 -65.98,31.15 -21.53,2.97 -44.62,0.8 -69.43,-6.58 -16.76,-4.97 -41.46,-16.05 -74.04,-33.36l-280.28 -148.91 40.92 -77.02 250.6 133.16c40,21.25 67.9,34.02 83.35,38.29 22.78,5.94 43.92,4.07 63.77,-5.58 19.78,-9.49 35.82,-25.65 48.08,-48.71 12.24,-23.04 17.9,-47.71 16.8,-74.1 -1.08,-26.39 -9.62,-49.25 -25.36,-68.46 -15.79,-19.06 -43.07,-38.98 -81.61,-59.45l-242.17 -128.68 40.92 -77.01 452.92 240.65 -36.74 69.14zm325.07 -606.39l67.81 37.87c-11.02,22.4 -22.48,41.33 -34.26,56.44 -19.43,24.86 -38.35,41.08 -57.06,48.69 -18.58,7.49 -36.36,9.1 -53.58,4.68 -17.23,-4.44 -46.36,-22.8 -87.51,-54.93l-232.87 -181.86 -39.65 50.77 -52.97 -41.37 39.65 -50.77 -99.94 -78.05 12.52 -100.87 141.1 110.2 53.68 -68.74 52.96 41.37 -53.68 68.72 236.77 184.92c19.6,15.3 33.11,23.95 40.61,25.85 7.42,2.01 14.89,1.55 22.53,-1.28 7.52,-2.93 15.3,-9.42 23.23,-19.58 5.9,-7.54 12.82,-18.28 20.66,-32.06zm514.36 -491.43c-6.76,41.95 -17.98,76.87 -33.34,104.92 -15.36,28.06 -36.09,53.13 -62.21,75.43 -42.96,36.67 -84.88,54.49 -125.84,53.3 -40.86,-1.05 -75.21,-17.87 -102.9,-50.31 -16.25,-19.04 -26.73,-40.21 -31.54,-63.39 -4.68,-23.29 -3.94,-45.57 2,-67.1 6.06,-21.64 15.68,-42.42 29.22,-62.43 10.19,-14.53 27.12,-34.62 50.59,-60.29 48.17,-51.95 81.21,-93.38 98.96,-123.7 -7.44,-9.23 -12.23,-15.11 -14.26,-17.48 -22.89,-26.8 -45.32,-40.35 -67.29,-40.66 -29.68,-0.42 -61.25,13.74 -94.67,42.26 -31.27,26.71 -49.67,51.95 -55.19,75.51 -5.65,23.65 -0.09,52.28 16.49,86.2l-72.51 46.32c-17.74,-32.72 -27.21,-63.4 -28.19,-92.01 -0.98,-28.62 7.49,-58.38 25.21,-89.52 17.69,-30.93 43.49,-60.97 77.16,-89.72 33.42,-28.53 63.98,-47.92 91.7,-57.94 27.58,-9.91 51.37,-13.33 71.33,-9.8 19.96,3.53 39.7,12.67 59.23,27.4 11.76,9.45 30.22,28.78 55.14,57.97l74.86 87.68c52.3,61.24 86.72,98.76 103.49,112.81 16.66,14.16 35.54,25.1 56.42,33.27l-69.33 59.2c-18.53,-8.22 -36.71,-20.86 -54.53,-37.92zm-130.4 -142.04c-15.78,30.37 -44.9,69.52 -87.34,117.46 -24.07,27.26 -39.68,48.16 -46.81,62.7 -7.13,14.54 -9.71,29.08 -7.95,43.61 1.87,14.64 7.61,27.72 17.45,39.25 14.86,17.4 34.04,26.38 57.42,26.55 23.38,0.16 48,-10.67 73.76,-32.66 25.5,-21.76 43.53,-46.69 53.97,-74.89 10.44,-27.96 12.2,-55.67 5.13,-82.77 -5.57,-21.02 -20.77,-45.94 -45.47,-74.87l-20.16 -24.38zm461.76 -218.71l68.73 -53.86c20.86,27.79 45.47,44.28 73.77,49.7 28.22,5.27 59.85,-1.7 94.53,-20.89 35.12,-19.44 57.21,-40.91 66.36,-64.62 9.09,-23.48 8.36,-44.92 -2.26,-64.08 -9.49,-17.15 -24.63,-26.44 -45.24,-27.85 -14.44,-0.85 -45.16,5.05 -92.3,17.41 -63.52,16.9 -108.79,26.18 -136.14,27.94 -27.27,1.55 -51.42,-3.53 -72.6,-15.52 -21.1,-11.85 -37.82,-28.77 -49.94,-50.67 -11.09,-20.02 -16.68,-41.03 -16.99,-63.07 -0.18,-22.12 4.43,-43.12 13.96,-63.08 7.07,-15.21 19.18,-31.53 36.2,-48.85 17.17,-17.42 37.31,-32.52 60.71,-45.47 35.26,-19.52 68.98,-31.61 101.23,-36.1 32.31,-4.72 59.62,-1.76 81.91,8.49 22.22,10.47 43.9,28.78 64.77,55.25l-68.81 51.66c-16.25,-21.5 -36.2,-34.36 -59.65,-38.51 -23.45,-4.15 -49.86,2 -79.49,18.4 -34.82,19.29 -56.63,38.89 -65.12,58.66 -8.51,19.76 -8.52,37.47 0.02,52.88 5.43,9.81 13.41,17.06 24.01,21.54 10.67,4.63 24.1,6.05 40.35,4.01 9.26,-1.36 35.1,-7.19 77.96,-17.75 61.65,-15.5 105.76,-24.49 132.17,-27.25 26.41,-2.76 50.6,1.37 72.31,11.93 21.93,10.63 39.97,28.9 54.33,54.83 13.95,25.22 19.75,53.06 17.23,83.64 -2.51,30.58 -14.32,59.7 -35.42,87.4 -21.26,27.75 -49.55,51.34 -84.81,70.87 -58.37,32.31 -109.72,44.93 -153.68,37.83 -44.03,-7.25 -83.33,-32.18 -118.1,-74.87zm1061.29 -328.29l-159.08 -689.43 261.02 -60.24c45.87,-10.58 81.47,-16.43 106.78,-17.7 35.24,-2.23 66.21,1.96 92.86,12.38 26.68,10.56 50.29,28.45 70.85,53.62 20.56,25.17 34.69,54.87 42.59,89.05 13.47,58.43 6.25,112.32 -21.91,161.41 -27.97,49.22 -91.05,85.07 -188.9,107.66l-177.36 40.93 64.88 281.16 -91.73 21.16zm8.19 -383.22l178.63 -41.22c59.23,-13.67 98.56,-34.23 118.42,-61.97 19.72,-27.71 24.99,-61.38 15.77,-101.34 -6.62,-28.72 -19.57,-51.77 -38.96,-68.94 -19.38,-17.16 -41.83,-26.34 -67.17,-27.42 -16.38,-0.46 -45.34,4.03 -86.71,13.58l-176.86 40.81 56.88 246.5zm1220.69 163.3c-32.15,27.77 -63.2,47.3 -93,58.91 -29.8,11.62 -61.8,17.48 -96.15,17.77 -56.48,0.47 -100.03,-12.85 -130.65,-40.1 -30.61,-27.08 -46.1,-62.04 -46.45,-104.7 -0.21,-25.04 5.38,-47.97 16.6,-68.82 11.4,-20.84 26.29,-37.44 44.69,-50.1 18.55,-12.69 39.28,-22.41 62.51,-29.03 17.15,-4.58 43.04,-9.08 77.52,-13.64 70.29,-8.82 122.23,-19.31 155.33,-31.1 0.23,-11.86 0.34,-19.44 0.31,-22.57 -0.29,-35.24 -8.75,-60.04 -25.39,-74.4 -22.45,-19.42 -55.73,-28.86 -99.67,-28.5 -41.12,0.34 -71.45,7.84 -90.82,22.33 -19.54,14.49 -33.69,39.98 -42.8,76.62l-85.32 -11.16c7.46,-36.46 19.93,-66.04 37.58,-88.59 17.65,-22.55 43.27,-39.88 76.87,-52.35 33.42,-12.3 72.51,-18.72 116.78,-19.09 43.93,-0.36 79.81,4.45 107.48,14.59 27.5,10.15 47.92,22.83 60.93,38.37 13.02,15.53 22.26,35.23 27.75,59.06 2.93,14.81 4.64,41.47 4.95,79.85l0.96 115.29c0.67,80.53 2.9,131.4 6.71,152.95 3.65,21.55 11.08,42.07 21.82,61.75l-91.17 0.75c-8.9,-18.21 -14.7,-39.57 -17.37,-64.09zm-8.54 -192.64c-31.59,13.12 -79.08,24.37 -142.42,33.79 -35.96,5.42 -61.36,11.39 -76.16,17.93 -14.82,6.54 -26.13,16.02 -34.13,28.29 -7.98,12.4 -12,26.12 -11.88,41.26 0.19,22.91 9.12,42.1 26.91,57.27 17.8,15.17 43.63,22.7 77.48,22.42 33.53,-0.28 63.37,-7.77 89.5,-22.65 25.97,-14.71 45.14,-34.79 57.15,-60.1 9.25,-19.67 13.63,-48.53 13.32,-86.57l0.23 -31.64zm-185.96 -317.66l62.3 -135.9 114.94 -0.95 -104.9 136.25 -72.34 0.6zm882.18 573.25l-0.42 77.66c-24.93,1.17 -47.05,0.29 -65.97,-2.74 -31.14,-5 -54.49,-13.74 -70.19,-26.44 -15.53,-12.67 -25.54,-27.45 -29.96,-44.67 -4.44,-17.22 -2.44,-51.6 5.83,-103.15l46.8 -291.74 -63.61 -10.2 10.64 -66.36 63.61 10.21 20.08 -125.21 94.37 -37.75 -28.35 176.76 86.11 13.82 -10.64 66.35 -86.12 -13.81 -47.57 296.62c-3.94,24.56 -5,40.56 -3.03,48.05 1.83,7.47 5.83,13.78 12,19.11 6.2,5.17 15.63,8.86 28.36,10.89 9.45,1.52 22.2,2.39 38.06,2.6zm294.49 149.74l23.39 -66.85 431.25 -246.24c-35.58,-10.35 -66.62,-20.17 -93.11,-29.44l-196.58 -68.79 23.17 -66.23 395.66 138.46 -18.88 53.95 -370.55 214.78 -70.3 39.44c38.02,9.81 73.17,20.38 105.45,31.67l224.64 78.61 -24.81 70.88 -429.33 -150.24zm1136.63 318.3l68.26 52.38c-37.04,46.2 -80.23,74.14 -130.04,83.94 -49.81,9.81 -99.17,0.75 -147.87,-26.88 -61.04,-34.64 -98.88,-82.43 -113.35,-143.28 -14.61,-60.93 -0.8,-128.47 41.3,-202.65 27.31,-48.14 59.17,-85.56 95.58,-112.6 36.36,-26.91 75.99,-40.21 118.91,-39.54 42.84,0.45 83.44,11.56 121.94,33.4 48.41,27.47 81.3,62.21 98.15,104.15 16.99,42.02 17.06,88.08 0.17,137.95l-79.61 -30.4c9.94,-33.93 10.35,-63.42 1.01,-88.8 -9.28,-25.14 -26.52,-44.96 -51.81,-59.31 -38.2,-21.68 -76.96,-25.67 -116.39,-12.06 -39.36,13.83 -75.67,50.04 -109.16,109.06 -33.96,59.88 -47.1,109.81 -39.48,149.92 7.77,40.2 30.08,70.85 66.99,91.79 29.89,16.96 59.86,22.02 90,15.08 30.21,-6.73 58.7,-27.48 85.4,-62.15zm502.36 652.28l52.22 -55.57c-68.95,15 -128.28,-0.98 -178.22,-47.92 -22.03,-20.7 -38.65,-44.25 -49.89,-70.62 -11.14,-26.51 -15.41,-50.43 -12.72,-71.85 2.8,-21.55 10.96,-43.27 24.6,-65.26 9.21,-14.86 26.38,-35.78 51.64,-62.67l217.36 -231.27 63.54 59.72 -194.34 206.79c-31.01,33.01 -50.67,56.57 -58.86,70.35 -11.71,20.42 -15.46,41.3 -11.37,63 3.96,21.58 15.34,41.3 34.36,59.19 19.02,17.87 41.33,29.8 67.08,35.69 25.74,5.89 50.05,3.65 72.72,-6.47 22.53,-10.23 48.92,-31.32 78.82,-63.12l187.79 -199.84 63.56 59.73 -351.24 373.74 -57.05 -53.62zm574.36 602.25c-41.04,-10.97 -74.65,-25.67 -101,-43.8 -26.35,-18.12 -49.19,-41.29 -68.73,-69.54 -32.14,-46.45 -45.6,-89.96 -40.27,-130.6 5.2,-40.54 25.41,-73 60.49,-97.26 20.59,-14.25 42.71,-22.51 66.25,-24.96 23.65,-2.28 45.75,0.71 66.56,8.8 20.92,8.23 40.62,19.91 59.14,35.4 13.43,11.6 31.7,30.49 54.86,56.45 46.8,53.18 84.66,90.25 113.03,110.99 9.93,-6.48 16.27,-10.65 18.84,-12.42 28.98,-20.06 44.73,-41 47.26,-62.82 3.44,-29.49 -7.45,-62.32 -32.45,-98.47 -23.39,-33.81 -46.64,-54.67 -69.51,-62.56 -22.96,-8.02 -52.01,-5.4 -87.43,7.66l-38.73 -76.84c34.34,-14.32 65.83,-20.64 94.4,-18.7 28.57,1.93 57.31,13.37 86.51,34.15 28.95,20.74 56.23,49.45 81.42,85.86 24.99,36.14 41.18,68.51 48.34,97.11 7.07,28.44 8.06,52.46 2.51,71.95 -5.53,19.5 -16.62,38.21 -33.25,56.15 -10.6,10.74 -31.7,27.14 -63.26,48.97l-94.81 65.59c-66.24,45.81 -107.06,76.25 -122.74,91.52 -15.77,15.13 -28.57,32.81 -38.81,52.75l-51.86 -74.98c10.05,-17.59 24.47,-34.4 43.24,-50.4zm154.53 -115.31c-28.6,-18.78 -64.61,-51.73 -107.99,-98.82 -24.69,-26.7 -43.9,-44.35 -57.63,-52.91 -13.75,-8.58 -27.95,-12.61 -42.58,-12.33 -14.76,0.37 -28.35,4.75 -40.81,13.37 -18.84,13.02 -29.7,31.19 -32.25,54.43 -2.54,23.26 5.75,48.84 25.01,76.7 19.07,27.56 42.04,48.03 69.04,61.28 26.76,13.22 54.15,17.79 81.82,13.5 21.48,-3.41 47.81,-16 79.1,-37.65l26.29 -17.57zm36.98 575.94l467.47 -210.98 32.21 71.36 -71.61 32.32c41.4,3.24 70.92,10.21 88.43,20.97 17.66,10.69 30.59,25.35 38.94,43.86 12.09,26.79 15.98,57.84 11.83,93.05l-85.88 4.69c2.11,-24.14 -1.18,-45.85 -9.88,-65.12 -7.81,-17.31 -20.07,-30.45 -36.61,-39.47 -16.54,-9.02 -35.36,-12.31 -56.48,-9.84 -32.09,3.77 -64.83,13.3 -98.3,28.41l-244.25 110.23 -35.87 -79.48zm470.32 472.62c92.27,-21.3 166.58,-11.32 222.96,30.07 46.82,34.46 77.41,82.83 91.71,144.79 15.86,68.71 6.4,130.23 -28.44,184.37 -34.71,53.94 -91.77,90.17 -170.89,108.42 -64.19,14.81 -116.8,16.78 -158.01,5.94 -41.21,-10.81 -76.28,-32.39 -105.2,-64.7 -28.89,-32.16 -48.33,-70.21 -58.39,-113.82 -16.19,-70.17 -6.95,-131.97 27.84,-185.6 34.78,-53.61 94.32,-90.06 178.42,-109.47zm19.88 86.94c-63.87,14.74 -108.46,39.78 -133.61,75.08 -25.28,35.49 -33.04,74.4 -23.2,117.05 9.73,42.17 33.72,73.58 72.15,94.37 38.41,20.63 90.26,23.41 155.58,8.35 61.63,-14.22 105.06,-39.17 130.17,-74.63 25.28,-35.49 33.08,-74.24 23.42,-116.08 -9.84,-42.65 -33.71,-74.27 -71.82,-95.13 -38.07,-20.71 -88.98,-23.71 -152.69,-9.01z"/>
  <circle class="fil6 str0" cx="6762.65" cy="13608.15" r="183.13"/>
  <circle class="fil7 str0" cx="15098.17" cy="13630.89" r="183.13"/>
 </g>
</svg>
